<svg xmlns="http://www.w3.org/2000/svg" width="40" height="40" viewBox="0 0 40 40">
  <circle cx="20" cy="20" r="19" fill="white" stroke="#211e26" stroke-width="2"/>
  <g transform="translate(10, 7)"> 
    <path fill="#211e26" d="M16.715 7.932c-.068-.09-.306-.26-.714-.51s-.918-.51-1.53-.782-1.281-.51-2.006-.714a8.005 8.005 0 00-2.176-.306c-1.995 0-2.992.669-2.992 2.006 0 .408.107.748.323 1.02.215.272.532.516.952.731.419.215.946.414 1.58.595l1.406.393.805.219c1.156.317 2.198.663 3.128 1.037.929.374 1.717.839 2.363 1.394a5.647 5.647 0 011.496 2.023c.35.793.527 1.745.527 2.856 0 1.36-.255 2.51-.765 3.451-.51.94-1.185 1.7-2.023 2.278-.84.578-1.802.997-2.89 1.258-1.088.26-2.21.391-3.366.391a19.68 19.68 0 01-5.44-.799c-.884-.26-1.74-.572-2.567-.935A14.358 14.358 0 01.53 22.28l2.448-4.862c.09.113.385.329.884.646.498.317 1.116.635 1.853.952.736.317 1.558.6 2.465.85.906.25 1.824.374 2.754.374 1.972 0 2.958-.6 2.958-1.802 0-.453-.148-.827-.442-1.122-.295-.295-.703-.561-1.224-.799a12.455 12.455 0 00-1.504-.56l-1.702-.495-.976-.288c-1.111-.34-2.074-.708-2.89-1.105-.816-.397-1.49-.856-2.023-1.377a5.003 5.003 0 01-1.19-1.802c-.261-.68-.391-1.473-.391-2.38 0-1.27.238-2.391.714-3.366a7.266 7.266 0 011.938-2.465 8.435 8.435 0 012.839-1.513c1.076-.34 2.215-.51 3.417-.51.838 0 1.666.08 2.482.238.816.159 1.598.363 2.346.612.748.25 1.445.533 2.09.85.647.317 1.242.635 1.786.952l-2.448 4.624z"/>
  </g>
</svg>
